<?xml version="1.0" encoding="UTF-8"?>
<svg width="24" height="24" viewBox="0 0 24 24" fill="none" xmlns="http://www.w3.org/2000/svg">
  <path d="M16 7H14.74C14.3659 5.551 13.4324 4.28937 12.1227 3.4428C10.813 2.59623 9.22736 2.21654 7.66733 2.36621C6.10723 2.51588 4.65661 3.18674 3.56141 4.2672C2.46621 5.34766 1.79158 6.78803 1.64 8.34699C1.48842 9.90596 1.86645 11.4904 2.71251 12.7989C3.55856 14.1075 4.81989 15.0397 6.26899 15.412" stroke="#64B5F6" stroke-width="2" stroke-linecap="round" stroke-linejoin="round"/>
  <path d="M15 10.5C16.3807 10.5 17.5 11.6193 17.5 13C17.5 14.3807 16.3807 15.5 15 15.5H7C5.61929 15.5 4.5 14.3807 4.5 13C4.5 11.6193 5.61929 10.5 7 10.5H15Z" fill="#64B5F6"/>
  <path d="M8 17L7 19M12 17L11 19M16 17L15 19" stroke="#1976D2" stroke-width="2" stroke-linecap="round"/>
</svg> 