<?xml version="1.0" encoding="iso-8859-1"?>
<!-- Uploaded to: SVG Repo, www.svgrepo.com, Generator: SVG Repo Mixer Tools -->
<svg height="800px" width="800px" version="1.1" id="Capa_1" xmlns="http://www.w3.org/2000/svg" xmlns:xlink="http://www.w3.org/1999/xlink" 
	 viewBox="0 0 16.638 16.638" xml:space="preserve">
<g>
	<g>
		<path style="fill:#030104;" d="M12.01,6.648c-1.221,0-2.389,0.486-3.254,1.342c-0.282-0.074-0.57-0.112-0.858-0.112
			c-1.023,0-1.982,0.459-2.625,1.242C5.185,9.111,5.099,9.107,5.014,9.107c-1.873,0-3.396,1.524-3.396,3.397
			c0,1.753,1.313,3.206,3.057,3.38h6.035c0.007,0.001,0.012,0.004,0.02,0.004h0.905h0.003h0.18l0.001-0.001l0.466,0.001l0.017-0.001
			c2.432-0.151,4.336-2.178,4.336-4.612C16.636,8.724,14.561,6.648,12.01,6.648z M12.251,14.859h-0.427
			c-0.003,0-0.005-0.001-0.007-0.001h-0.18h-0.003h-0.905c-0.002,0-0.002,0-0.002,0H4.753c-1.203-0.132-2.106-1.139-2.106-2.354
			c0-1.306,1.062-2.368,2.367-2.368c0.125,0,0.257,0.012,0.404,0.038l0.328,0.057l0.186-0.276C6.53,9.065,7.691,8.672,8.728,9.06
			l0.334,0.125l0.235-0.269c0.686-0.789,1.674-1.239,2.712-1.239c1.983,0,3.597,1.614,3.597,3.598
			C15.607,13.162,14.134,14.734,12.251,14.859z"/>
		<path style="fill:#030104;" d="M2.658,8.685c0.017-0.031,0.016-0.068-0.002-0.099c-0.118-0.197-0.22-0.402-0.302-0.614
			C2.271,7.76,2.206,7.539,2.159,7.316C2.152,7.281,2.127,7.253,2.094,7.242c-0.032-0.011-0.07-0.005-0.097,0.019L0.372,8.649
			C0.34,8.676,0.328,8.721,0.343,8.761c0.015,0.038,0.052,0.063,0.093,0.063c0.001,0,0.002,0,0.004,0l2.135-0.086
			C2.609,8.736,2.642,8.717,2.658,8.685z"/>
		<path style="fill:#030104;" d="M9.047,4.52C9.03,4.551,9.03,4.588,9.049,4.618c0.116,0.193,0.219,0.4,0.303,0.615
			c0.067,0.174,0.119,0.35,0.162,0.526c0.175-0.048,0.354-0.084,0.535-0.104l1.286-1.098c0.032-0.027,0.043-0.072,0.028-0.112
			c-0.017-0.04-0.059-0.062-0.098-0.064L9.13,4.467C9.096,4.469,9.063,4.488,9.047,4.52z"/>
		<path style="fill:#030104;" d="M7.629,3.286c0.197,0.109,0.389,0.236,0.569,0.38c0.18,0.145,0.347,0.303,0.497,0.472
			c0.02,0.021,0.046,0.034,0.074,0.034c0.007,0,0.013,0,0.02-0.001c0.035-0.007,0.063-0.032,0.075-0.065l0.714-2.015
			c0.014-0.041,0-0.084-0.032-0.111C9.512,1.952,9.466,1.949,9.43,1.972L7.624,3.115C7.595,3.134,7.577,3.167,7.577,3.202
			C7.579,3.237,7.598,3.269,7.629,3.286z"/>
		<path style="fill:#030104;" d="M5.732,2.843h0.084c0.198,0,0.4,0.016,0.6,0.046c0.225,0.034,0.449,0.087,0.666,0.16
			c0.01,0.003,0.021,0.005,0.031,0.005c0.024,0,0.047-0.009,0.065-0.025c0.027-0.022,0.04-0.059,0.033-0.093L6.824,0.833
			C6.815,0.791,6.782,0.759,6.741,0.752C6.699,0.745,6.657,0.766,6.637,0.804L5.642,2.697C5.626,2.728,5.627,2.765,5.646,2.795
			C5.665,2.826,5.695,2.838,5.732,2.843z"/>
		<path style="fill:#030104;" d="M3.771,3.408C3.786,3.417,3.802,3.42,3.818,3.42c0.018,0,0.036-0.004,0.052-0.014
			c0.197-0.119,0.404-0.22,0.614-0.302c0.213-0.085,0.434-0.15,0.655-0.195c0.035-0.007,0.063-0.032,0.074-0.065
			c0.012-0.033,0.005-0.07-0.018-0.097L3.809,1.12C3.781,1.088,3.736,1.076,3.696,1.093C3.656,1.109,3.631,1.148,3.632,1.19
			l0.086,2.135C3.72,3.36,3.739,3.391,3.771,3.408z"/>
		<path style="fill:#030104;" d="M2.365,4.832C2.383,4.861,2.416,4.879,2.45,4.879c0,0,0.001,0,0.002,0
			c0.036-0.001,0.068-0.02,0.085-0.052c0.109-0.198,0.237-0.39,0.379-0.57c0.147-0.183,0.306-0.35,0.472-0.496
			C3.415,3.738,3.427,3.702,3.42,3.667C3.413,3.633,3.388,3.604,3.354,3.592L1.341,2.878C1.3,2.865,1.255,2.876,1.229,2.91
			C1.203,2.943,1.201,2.989,1.224,3.026L2.365,4.832z"/>
		<path style="fill:#030104;" d="M1.993,6.825c0.019,0,0.036-0.005,0.053-0.015c0.03-0.018,0.048-0.051,0.047-0.086
			c-0.004-0.23,0.01-0.46,0.044-0.683c0.035-0.229,0.089-0.454,0.16-0.667c0.011-0.033,0.003-0.07-0.02-0.096
			C2.254,5.251,2.219,5.239,2.183,5.245L0.082,5.634C0.04,5.64,0.008,5.674,0.001,5.716C-0.005,5.758,0.016,5.799,0.054,5.82
			l1.892,0.995C1.961,6.821,1.978,6.825,1.993,6.825z"/>
		<path style="fill:#030104;" d="M3.157,8.487l0.154,0.222l0.17-0.21C3.92,7.958,4.569,7.648,5.262,7.648
			c0.056,0,0.114,0.002,0.173,0.008l0.107,0.009L5.61,7.583C6.171,6.899,7.096,6.59,7.964,6.82l0.112,0.03l0.083-0.082
			c0.235-0.233,0.508-0.429,0.813-0.583L9.11,6.116L9.08,5.964C8.81,4.607,7.712,3.556,6.347,3.349
			C6.181,3.325,6.015,3.312,5.849,3.312c-1.61,0-3.008,1.203-3.251,2.799C2.472,6.946,2.669,7.791,3.157,8.487z M3,6.171
			c0.213-1.399,1.437-2.452,2.849-2.452c0.146,0,0.292,0.01,0.436,0.032c1.147,0.174,2.079,1.028,2.362,2.145
			c-0.251,0.141-0.483,0.31-0.691,0.502C7.001,6.189,6.004,6.523,5.365,7.243c-0.77-0.039-1.484,0.261-2.014,0.792
			C3.027,7.47,2.902,6.818,3,6.171z"/>
	</g>
</g>
</svg>