<?xml version="1.0" encoding="UTF-8"?>
<svg width="24" height="24" viewBox="0 0 24 24" fill="none" xmlns="http://www.w3.org/2000/svg">
  <path d="M18 10H16.74C16.3659 8.551 15.4324 7.28937 14.1227 6.4428C12.813 5.59623 11.2274 5.21654 9.66733 5.36621C8.10723 5.51588 6.65661 6.18674 5.56141 7.2672C4.46621 8.34766 3.79158 9.78803 3.64 11.347C3.48842 12.906 3.86645 14.4904 4.71251 15.7989C5.55856 17.1075 6.81989 18.0397 8.26899 18.412" stroke="#A0A0A0" stroke-width="2" stroke-linecap="round" stroke-linejoin="round"/>
  <path d="M17 13.5C18.3807 13.5 19.5 14.6193 19.5 16C19.5 17.3807 18.3807 18.5 17 18.5H9C7.61929 18.5 6.5 17.3807 6.5 16C6.5 14.6193 7.61929 13.5 9 13.5H17Z" fill="#A0A0A0"/>
</svg> 